<?xml version="1.0" encoding="utf-8"?>
<!-- Generator: Adobe Illustrator 16.0.0, SVG Export Plug-In . SVG Version: 6.00 Build 0)  -->
<!DOCTYPE svg PUBLIC "-//W3C//DTD SVG 1.1//EN" "http://www.w3.org/Graphics/SVG/1.1/DTD/svg11.dtd">
<svg version="1.1" id="Layer_1" xmlns="http://www.w3.org/2000/svg" xmlns:xlink="http://www.w3.org/1999/xlink" x="0px" y="0px"
	 width="595.28px" height="841.89px" viewBox="0 0 595.28 841.89" enable-background="new 0 0 595.28 841.89" xml:space="preserve">
<polygon fill="#EF4137" points="356.141,401.345 239.141,401.345 297.641,306.345 "/>
<g>
	<path fill="#EF4137" d="M243.453,413.398h-3.982v-2.816h11.397v2.816h-4.048v12.014h-3.367V413.398z"/>
	<path fill="#EF4137" d="M261.472,419.141h-5.457v3.521h6.095v2.75h-9.461v-14.831h9.153v2.75h-5.787v3.08h5.457V419.141z"/>
	<path fill="#EF4137" d="M275.288,424.994c-0.616,0.307-2.002,0.637-3.807,0.637c-5.126,0-7.767-3.189-7.767-7.414
		c0-5.061,3.608-7.877,8.097-7.877c1.738,0,3.059,0.352,3.653,0.66l-0.682,2.663c-0.682-0.286-1.628-0.55-2.816-0.55
		c-2.663,0-4.731,1.606-4.731,4.907c0,2.97,1.76,4.841,4.753,4.841c1.012,0,2.134-0.221,2.794-0.484L275.288,424.994z"/>
	<path fill="#EF4137" d="M280.853,410.582v5.699h5.523v-5.699h3.344v14.831h-3.344v-6.206h-5.523v6.206h-3.366v-14.831H280.853z"/>
	<path fill="#EF4137" d="M297.088,425.412v-14.831h3.917l3.08,5.435c0.88,1.563,1.761,3.411,2.42,5.083h0.066
		c-0.22-1.958-0.286-3.961-0.286-6.183v-4.334h3.08v14.831h-3.52l-3.169-5.721c-0.88-1.584-1.849-3.499-2.574-5.237l-0.066,0.022
		c0.088,1.958,0.132,4.048,0.132,6.469v4.467H297.088z"/>
	<path fill="#EF4137" d="M321.091,419.141h-5.457v3.521h6.095v2.75h-9.461v-14.831h9.153v2.75h-5.787v3.08h5.457V419.141z"/>
	<path fill="#EF4137" d="M326.546,425.412l-3.521-14.831h3.587l1.122,6.117c0.33,1.76,0.638,3.675,0.88,5.171h0.044
		c0.242-1.606,0.594-3.389,0.968-5.215l1.255-6.073h3.564l1.188,6.249c0.33,1.738,0.572,3.322,0.793,4.973h0.044
		c0.22-1.65,0.55-3.389,0.857-5.149l1.21-6.073h3.411l-3.829,14.831h-3.63l-1.255-6.381c-0.285-1.496-0.527-2.882-0.704-4.577
		h-0.044c-0.264,1.672-0.506,3.081-0.857,4.577l-1.408,6.381H326.546z"/>
	<path fill="#EF4137" d="M343.64,421.957c0.901,0.463,2.288,0.924,3.718,0.924c1.541,0,2.354-0.637,2.354-1.606
		c0-0.924-0.704-1.452-2.486-2.09c-2.464-0.858-4.07-2.222-4.07-4.378c0-2.53,2.112-4.467,5.61-4.467
		c1.673,0,2.905,0.352,3.785,0.748l-0.748,2.707c-0.595-0.286-1.65-0.704-3.103-0.704s-2.156,0.66-2.156,1.43
		c0,0.946,0.836,1.364,2.75,2.09c2.618,0.968,3.851,2.333,3.851,4.423c0,2.486-1.914,4.598-5.984,4.598
		c-1.694,0-3.367-0.439-4.203-0.9L343.64,421.957z"/>
</g>
</svg>
